<?xml version="1.0" standalone="no"?>
<!DOCTYPE svg PUBLIC "-//W3C//DTD SVG 20010904//EN"
 "http://www.w3.org/TR/2001/REC-SVG-20010904/DTD/svg10.dtd">
<svg version="1.0" xmlns="http://www.w3.org/2000/svg"
 width="170.000000pt" height="210.000000pt" viewBox="0 0 170.000000 210.000000"
 preserveAspectRatio="xMidYMid meet">
<metadata>
Created by potrace 1.16, written by Peter Selinger 2001-2019
</metadata>
<g transform="translate(0.000000,210.000000) scale(0.100000,-0.100000)"
fill="#000000" stroke="none">
<path d="M0 1839 c0 -243 1 -260 18 -257 15 3 17 14 15 83 l-1 80 14 -40 c7
-22 12 -59 11 -82 -3 -36 0 -43 15 -43 10 0 18 -4 18 -9 0 -5 -20 -7 -45 -4
-51 5 -62 -11 -14 -21 50 -10 59 -7 69 17 6 16 9 17 9 5 1 -9 -10 -25 -24 -36
-25 -20 -24 -32 5 -32 11 0 20 10 23 28 3 15 9 35 12 45 6 13 2 17 -15 17
l-22 0 4 255 4 255 -48 0 -48 0 0 -261z"/>
<path d="M538 2041 l-3 -59 35 -6 c20 -3 49 -2 65 2 28 8 30 12 33 65 l3 57
-65 0 -64 0 -4 -59z"/>
<path d="M1514 2060 c1 -33 6 -44 31 -60 34 -22 85 -78 85 -92 0 -5 -24 11
-52 36 -29 25 -56 46 -59 46 -4 0 -8 -56 -8 -125 -1 -69 -4 -132 -7 -140 -5
-12 6 -15 64 -15 l70 0 6 31 c3 17 6 105 6 195 l0 164 -68 0 -68 0 0 -40z"/>
<path d="M12 1504 c-7 -8 -10 -19 -7 -24 4 -6 8 -38 11 -72 5 -81 14 -87 14
-10 0 43 4 62 13 62 9 0 11 -68 9 -316 -3 -233 0 -319 9 -330 10 -12 6 -14
-25 -14 -20 0 -36 -4 -36 -10 0 -5 23 -10 51 -10 42 0 50 3 45 16 -3 8 -6 106
-5 217 0 111 0 220 -1 242 0 30 2 36 10 25 5 -8 10 -11 10 -7 0 4 -7 19 -16
32 -12 18 -14 35 -8 67 4 24 8 53 8 65 1 12 5 25 10 30 6 5 6 2 1 -7 -8 -13
-7 -13 8 -1 22 17 14 25 -25 27 -17 1 -35 9 -40 18 -11 20 -19 20 -36 0z"/>
<path d="M1331 1184 c-13 -56 -13 -56 -44 -49 -99 21 -205 12 -224 -18 -4 -7
0 -8 13 -2 30 12 156 18 194 8 26 -7 34 -15 35 -33 3 -32 -5 -51 -16 -44 -5 3
-7 9 -5 13 3 4 0 8 -7 9 -7 0 -32 6 -57 12 -44 11 -103 7 -129 -9 -13 -9 -15
-19 -22 -131 l-4 -55 50 -7 c27 -4 51 -6 52 -4 2 1 6 17 9 36 5 24 4 31 -4 26
-7 -4 -12 -16 -12 -27 0 -17 -6 -20 -37 -17 -33 3 -38 7 -41 31 -3 28 6 35 25
16 16 -16 43 -3 43 21 0 18 10 24 32 21 3 0 9 17 13 39 4 22 8 40 10 40 23 0
55 -23 55 -40 0 -22 15 -27 23 -7 4 8 6 8 6 1 2 -26 -52 -192 -74 -230 -24
-41 -129 -134 -229 -205 -26 -19 -57 -40 -68 -48 -11 -8 -36 -18 -56 -22 l-37
-8 35 3 c19 2 44 7 55 10 18 7 20 3 17 -43 l-4 -51 -198 0 c-132 0 -201 4
-206 11 -7 12 -6 251 2 259 3 3 11 -2 18 -10 6 -8 25 -26 41 -40 17 -14 4 3
-27 36 -31 34 -59 72 -62 85 -3 13 -7 33 -10 44 -2 11 -4 -19 -4 -67 0 -70 3
-86 14 -81 11 4 14 -12 14 -86 0 -66 -3 -91 -12 -91 -9 0 -8 -3 2 -10 8 -5 11
-12 7 -16 -4 -4 -2 -13 4 -20 8 -10 4 -13 -20 -12 -19 1 -32 7 -34 17 -4 13
-5 13 -6 -2 -1 -15 -10 -17 -54 -16 l-54 2 13 63 c12 54 11 78 -1 161 -8 54
-15 114 -15 135 0 23 -8 45 -22 61 l-22 25 -28 -49 c-16 -27 -33 -49 -38 -49
-6 0 -10 -7 -10 -15 0 -8 -3 -15 -7 -15 -5 -1 -44 -2 -88 -4 -44 -2 -90 -4
-102 -5 -13 0 -23 -7 -23 -15 0 -18 45 -26 84 -15 20 6 32 5 34 -1 2 -6 10 -6
23 0 14 8 19 7 19 -2 0 -9 3 -9 10 2 11 18 25 6 16 -16 -5 -13 -17 -16 -64
-12 l-57 4 4 -128 3 -128 -36 0 -36 0 0 -210 0 -210 850 0 850 0 -1 228 c-1
125 -3 219 -6 210 -4 -15 -17 -18 -89 -18 l-84 0 0 250 0 250 80 0 80 0 1
-107 c2 -208 16 -242 18 -43 l1 185 -87 -1 c-57 -1 -65 0 -23 3 106 5 110 7
110 53 l0 40 -162 2 -163 2 165 6 165 6 -162 2 c-143 2 -163 4 -163 18 0 14
-3 14 -15 4 -11 -9 -12 -15 -5 -20 6 -4 8 -13 5 -21 -4 -13 -35 -259 -35 -286
0 -9 19 -13 64 -13 l63 0 7 -77 c3 -42 6 -116 6 -164 l0 -89 -85 1 -85 1 -1
51 c-1 30 -4 39 -6 22 -9 -74 -9 -75 -63 -75 l-50 0 0 155 c0 95 4 155 10 155
20 0 61 83 86 173 39 141 79 326 71 333 -2 2 -9 -21 -16 -52z m-182 -659 c3
119 8 114 14 -12 l4 -93 -72 0 c-52 0 -83 5 -104 18 -39 22 -39 28 2 41 17 7
47 24 66 40 33 27 33 28 21 66 -13 38 -12 39 21 67 l34 29 5 -128 6 -128 3
100z m-990 90 c-11 -25 -19 -60 -17 -78 3 -30 6 -33 51 -41 43 -7 48 -11 43
-30 -3 -11 -6 -27 -6 -33 0 -9 -22 -13 -75 -13 l-75 0 3 108 c1 59 6 113 10
120 5 6 26 12 47 12 l39 0 -20 -45z m158 -352 c3 -8 13 -7 33 5 23 13 33 14
54 4 25 -11 26 -14 26 -102 0 -73 -3 -90 -15 -90 -12 0 -15 14 -15 69 0 101
-12 120 -52 84 -14 -13 -18 -31 -18 -85 0 -54 -3 -68 -15 -68 -12 0 -15 15
-15 73 0 90 -9 106 -44 87 -24 -12 -26 -18 -26 -87 0 -58 -3 -73 -15 -73 -12
0 -15 18 -15 98 l0 98 57 -1 c33 0 58 -5 60 -12z m264 7 c17 -9 19 -22 19
-100 l0 -90 -51 0 c-55 0 -79 15 -79 50 0 23 21 50 39 50 6 0 11 5 11 10 0 6
12 10 26 10 21 0 25 4 22 23 -2 16 -11 23 -32 25 -16 2 -32 -2 -37 -10 -6 -9
-9 -7 -9 9 0 30 53 43 91 23z m587 -7 c6 -9 12 -12 12 -5 0 6 16 14 37 18 52
10 63 -10 63 -113 0 -49 -4 -83 -10 -83 -6 0 -10 30 -10 71 0 48 -5 75 -14 85
-19 18 -32 18 -40 -2 -3 -8 -10 -12 -16 -9 -6 4 -10 -21 -10 -69 0 -44 -4 -76
-10 -76 -6 0 -10 30 -10 71 0 69 -12 99 -40 99 -28 0 -40 -30 -40 -99 0 -41
-4 -71 -10 -71 -6 0 -10 39 -10 98 l0 97 48 2 c34 2 50 -2 60 -14z m455 -3
c10 -12 17 -37 17 -60 l0 -40 -54 0 c-51 0 -53 -1 -48 -25 4 -25 12 -28 77
-26 17 0 24 -2 17 -5 -6 -3 -10 -10 -6 -15 3 -5 -16 -9 -42 -9 -62 0 -84 24
-84 94 0 38 6 59 22 79 27 33 75 37 101 7z"/>
<path d="M533 1133 c-22 -3 -33 -10 -33 -20 0 -9 -7 -24 -15 -33 -13 -14 -14
-22 -4 -44 15 -32 31 -34 24 -3 -4 16 0 29 14 41 24 22 23 24 21 -65 -2 -83 7
-91 97 -87 62 3 68 5 71 26 4 27 -14 29 -21 2 -4 -16 -14 -20 -50 -20 -63 0
-77 7 -77 40 0 37 13 44 35 20 25 -27 53 -25 67 5 7 16 19 25 35 25 20 0 23 5
23 36 l0 36 34 -21 c37 -24 61 -28 32 -6 -10 7 -15 18 -12 24 10 15 -61 31
-142 31 -46 0 -71 4 -67 10 3 6 5 9 3 8 -2 0 -18 -3 -35 -5z"/>
</g>
</svg>
